<?xml version="1.0" encoding="utf-8"?>
<!-- Generator: Adobe Illustrator 22.0.1, SVG Export Plug-In . SVG Version: 6.00 Build 0)  -->
<svg version="1.1" id="Layer_1" xmlns="http://www.w3.org/2000/svg" xmlns:xlink="http://www.w3.org/1999/xlink" x="0px" y="0px"
	 viewBox="0 0 831.5 251.8" style="enable-background:new 0 0 831.5 251.8;" xml:space="preserve">
<style type="text/css">
	.st0{fill:#234465;}
	.st1{fill:#FFFFFF;}
</style>
<rect class="st0" width="831.5" height="251.8"/>
<title>SoftwareUniveristy_Logo_Oneline_White</title>
<g id="Layer_2_1_">
	<g id="Layer_1-2">
		<path class="st1" d="M373.2,46.6c-0.4,0.7-1,1.3-1.6,1.8c-0.6,0.4-1.4,0.6-2.2,0.6c-0.9,0-1.8-0.3-2.5-0.7l-3-1.6
			c-1.2-0.7-2.5-1.2-3.9-1.6c-1.6-0.5-3.3-0.8-5-0.7c-3.2,0-5.6,0.7-7.2,2.1c-1.6,1.4-2.5,3.5-2.4,5.6c0,1.4,0.5,2.7,1.4,3.7
			c1.1,1.1,2.3,1.9,3.7,2.5c1.7,0.8,3.5,1.5,5.3,2c2,0.6,4,1.3,6.1,2s4.1,1.6,6.1,2.6s3.7,2.2,5.3,3.8c1.6,1.6,2.9,3.5,3.7,5.6
			c1,2.5,1.5,5.2,1.4,7.9c0,3.3-0.6,6.6-1.8,9.6c-1.2,2.9-2.9,5.6-5.1,7.8c-2.4,2.3-5.2,4.1-8.4,5.2c-3.6,1.3-7.4,2-11.3,1.9
			c-2.4,0-4.7-0.2-7-0.7c-2.4-0.5-4.7-1.1-7-2c-2.2-0.8-4.3-1.9-6.3-3.1c-1.9-1.1-3.6-2.5-5.1-4l5.1-8c0.4-0.6,1-1.1,1.6-1.4
			c0.7-0.4,1.4-0.6,2.2-0.6c1.1,0,2.2,0.4,3.1,1c1,0.7,2.2,1.4,3.5,2.1c1.4,0.8,2.9,1.6,4.5,2.1c1.9,0.7,4,1,6,1
			c3.1,0,5.5-0.7,7.3-2.1s2.6-3.6,2.6-6.5c0.1-1.5-0.4-3-1.4-4.2c-1-1.2-2.3-2.1-3.8-2.8c-1.7-0.8-3.5-1.4-5.3-1.9
			c-2-0.5-4-1.1-6.1-1.8c-2.1-0.7-4.1-1.5-6.1-2.4c-2-1-3.7-2.3-5.2-3.9c-1.6-1.7-2.9-3.7-3.7-5.9c-1-2.8-1.5-5.8-1.4-8.7
			c0-2.8,0.6-5.6,1.7-8.1c1.1-2.7,2.8-5.1,4.9-7.1c2.3-2.2,5-3.9,8-5c3.5-1.3,7.1-1.9,10.8-1.9c2.2,0,4.4,0.2,6.6,0.5
			c2.1,0.3,4.1,0.9,6.1,1.6c1.9,0.7,3.7,1.6,5.4,2.6c1.6,0.9,3.1,2,4.5,3.3L373.2,46.6z"/>
		<path class="st1" d="M411.1,52.1c3.7,0,7.4,0.6,10.9,1.9c3.2,1.2,6,3,8.5,5.4c2.4,2.4,4.3,5.3,5.5,8.5c1.4,3.6,2,7.4,2,11.3
			c0,3.9-0.6,7.7-2,11.4c-1.2,3.2-3.1,6.2-5.5,8.6s-5.3,4.2-8.5,5.4c-3.5,1.3-7.2,2-10.9,1.9c-3.8,0-7.5-0.6-11-1.9
			c-3.2-1.2-6.1-3.1-8.5-5.4c-2.4-2.4-4.3-5.4-5.5-8.6c-1.4-3.6-2-7.5-2-11.4c0-3.8,0.6-7.7,2-11.3c1.2-3.2,3.1-6.1,5.5-8.6
			c2.5-2.4,5.4-4.2,8.6-5.4C403.6,52.7,407.3,52.1,411.1,52.1z M411.1,94.8c3.6,0,6.3-1.3,8-3.8s2.6-6.5,2.6-11.7
			c0-5.2-0.9-9.1-2.6-11.7s-4.4-3.8-8-3.8c-3.7,0-6.5,1.3-8.2,3.8s-2.6,6.4-2.6,11.7c0,5.2,0.9,9.1,2.6,11.7S407.4,94.8,411.1,94.8z
			"/>
		<path class="st1" d="M498.7,63.9v26.2c0,1.1,0.3,2.1,0.9,3c0.6,0.8,1.6,1.3,2.6,1.2c0.5,0,1,0,1.5-0.2c0.3-0.1,0.7-0.2,1-0.4
			l0.8-0.4c0.3-0.1,0.6-0.2,0.9-0.2c0.4,0,0.8,0.1,1.1,0.3c0.3,0.3,0.6,0.6,0.9,1l4.8,7.6c-2.1,1.5-4.4,2.7-6.9,3.4
			c-2.6,0.8-5.2,1.2-7.9,1.2c-2.3,0-4.5-0.3-6.6-1.1c-3.7-1.3-6.6-4.3-7.8-8c-0.7-2-1-4.2-1-6.4V63.9h-18.9v41.9h-15.8v-42l-3.5-0.7
			c-1-0.2-2-0.6-2.9-1.3c-0.8-0.6-1.2-1.6-1.1-2.5v-6.2h7.4v-3c0-2.8,0.5-5.6,1.5-8.2c0.9-2.4,2.3-4.5,4.2-6.3
			c1.9-1.8,4.2-3.1,6.6-4c2.9-1,5.9-1.5,8.9-1.4c1.2,0,2.4,0,3.6,0.2c1.2,0.2,2.3,0.4,3.4,0.7l-0.3,7.7c0,0.5-0.2,0.9-0.4,1.4
			c-0.2,0.4-0.6,0.7-0.9,0.9c-0.4,0.2-0.8,0.4-1.2,0.5c-0.4,0.1-0.9,0.1-1.3,0.1c-1.2,0-2.5,0.1-3.7,0.4c-1,0.2-2,0.7-2.7,1.5
			c-0.8,0.8-1.3,1.7-1.6,2.8c-0.4,1.4-0.6,2.8-0.6,4.3v2.5h20.2l3.2-13c0.4-1.6,1.6-2.4,3.5-2.4h8.2v15.4h13.1V64L498.7,63.9
			L498.7,63.9z"/>
		<path class="st1" d="M596.2,53l-16.4,52.8H567c-0.6,0-1.2-0.2-1.7-0.6c-0.6-0.5-0.9-1.2-1.1-2l-7.5-26.3c-0.4-1.2-0.7-2.4-1-3.5
			c-0.3-1.2-0.6-2.3-0.8-3.5c-0.2,1.2-0.5,2.4-0.8,3.6s-0.6,2.4-1,3.6l-7.6,26.2c-0.3,1.6-1.7,2.7-3.3,2.6H530l-16.4-52.8h12.5
			c1,0,2,0.2,2.8,0.8c0.7,0.5,1.3,1.2,1.5,2l5.3,23.6c0.4,1.8,0.8,3.5,1.2,5.2c0.3,1.7,0.6,3.4,0.9,5.1c0.4-1.7,0.9-3.4,1.4-5.1
			s1-3.4,1.6-5.2l6.6-23.7c0.3-0.8,0.8-1.5,1.5-2c0.8-0.5,1.7-0.8,2.6-0.8h7c1,0,2,0.2,2.8,0.8c0.7,0.5,1.3,1.2,1.5,2l6.3,23.7
			c0.5,1.8,1,3.5,1.5,5.2s0.9,3.4,1.4,5.1c0.3-1.7,0.6-3.4,1-5.1s0.8-3.5,1.2-5.3l5.6-23.7c0.3-0.8,0.8-1.5,1.5-2
			c0.8-0.5,1.7-0.8,2.7-0.8L596.2,53z"/>
		<path class="st1" d="M599.9,60.3c3.1-2.8,6.7-4.9,10.6-6.3c4-1.4,8.2-2.1,12.5-2.1c2.9,0,5.9,0.5,8.6,1.5c2.4,1,4.7,2.4,6.5,4.3
			c1.8,1.9,3.2,4.1,4.1,6.6c1,2.7,1.5,5.5,1.4,8.4v33h-7.2c-1.2,0.1-2.3-0.1-3.4-0.6c-0.9-0.6-1.6-1.5-1.9-2.6l-1.1-2.9
			c-1.3,1.1-2.6,2.1-3.8,3c-1.2,0.8-2.5,1.6-3.8,2.2s-2.7,1-4.2,1.3c-1.6,0.3-3.3,0.4-4.9,0.4c-2.2,0-4.4-0.3-6.6-0.9
			c-1.8-0.6-3.5-1.5-5-2.8c-1.4-1.3-2.5-2.8-3.2-4.6c-0.8-2-1.2-4.1-1.1-6.3c0-2,0.5-4,1.4-5.8c1.2-2.2,2.9-4,4.9-5.3
			c2.9-1.8,6.1-3.2,9.5-4c4.9-1.2,9.9-1.8,15-1.8v-2.3c0-3.1-0.6-5.3-1.9-6.7c-1.4-1.4-3.4-2.2-5.4-2.1c-1.5,0-3.1,0.2-4.6,0.6
			c-1.1,0.4-2.2,0.8-3.2,1.4c-0.9,0.5-1.8,1-2.7,1.4c-1,0.4-2.1,0.6-3.2,0.6c-1,0-1.9-0.3-2.8-0.8c-0.7-0.5-1.3-1.2-1.8-1.9
			L599.9,60.3z M628.3,84.3c-2.6,0.1-5.2,0.3-7.8,0.8c-1.7,0.3-3.3,0.8-4.8,1.5c-1,0.5-1.9,1.2-2.5,2.1c-0.5,0.8-0.7,1.6-0.7,2.5
			c0,1.8,0.5,3.1,1.5,3.8c1.3,0.8,2.8,1.2,4.3,1.1c1.8,0,3.7-0.3,5.3-1.1c1.7-0.9,3.3-2,4.6-3.5L628.3,84.3z"/>
		<path class="st1" d="M668.5,61.1c1.4-2.6,3.3-4.9,5.6-6.7c2.1-1.6,4.7-2.5,7.3-2.4c2.1-0.1,4.1,0.5,5.8,1.7l-1,11.6
			c-0.1,0.6-0.4,1.1-0.8,1.5c-0.5,0.3-1,0.4-1.6,0.4c-0.3,0-0.6,0-1.1,0l-1.4-0.1l-1.5-0.2c-0.4,0-0.9-0.1-1.3-0.1
			c-2-0.1-4,0.5-5.5,1.8c-1.5,1.4-2.7,3.2-3.5,5.1v32h-15.8V53h9.4c0.7,0,1.3,0,2,0.2c0.5,0.1,0.9,0.3,1.3,0.6
			c0.4,0.3,0.6,0.7,0.8,1.1c0.2,0.6,0.4,1.1,0.5,1.7L668.5,61.1z"/>
		<path class="st1" d="M704.6,82.2c0.5,4.4,1.8,7.6,4,9.6c2.3,2,5.3,3.1,8.4,3c1.6,0,3.2-0.2,4.7-0.7c1.2-0.4,2.4-0.9,3.5-1.5
			l2.8-1.5c0.8-0.4,1.8-0.7,2.7-0.7c1.1-0.1,2.2,0.5,2.8,1.4l4.6,5.7c-1.5,1.8-3.3,3.3-5.3,4.6c-1.8,1.1-3.8,2.1-5.8,2.8
			c-2,0.7-4,1.1-6,1.4c-1.9,0.2-3.8,0.4-5.7,0.4c-3.6,0-7.1-0.6-10.4-1.8c-3.2-1.2-6.1-3-8.5-5.4c-2.5-2.5-4.5-5.5-5.8-8.8
			c-1.5-3.9-2.2-8.1-2.1-12.3c0-3.4,0.6-6.8,1.8-10c2.3-6.3,7.2-11.3,13.4-13.9c6.5-2.6,13.8-2.8,20.5-0.5c2.8,1,5.4,2.6,7.5,4.7
			c2.1,2.2,3.8,4.8,4.9,7.6c1.2,3.3,1.8,6.7,1.8,10.2c0,1,0,1.9-0.2,2.9c-0.1,0.6-0.3,1.2-0.6,1.8c-0.2,0.4-0.6,0.7-1.1,0.9
			c-0.6,0.2-1.2,0.3-1.8,0.2L704.6,82.2z M724.4,73c0-1.2-0.2-2.5-0.5-3.7c-0.3-1.2-0.8-2.2-1.6-3.2s-1.8-1.7-2.9-2.3
			c-1.4-0.6-2.8-0.9-4.3-0.9c-2.6-0.1-5.1,0.8-7,2.6c-1.9,2.1-3,4.6-3.4,7.4L724.4,73z"/>
		<path class="st1" d="M363.1,191.6c2.1,0,4.2-0.4,6.2-1.1c1.8-0.7,3.3-1.8,4.6-3.3c1.3-1.5,2.3-3.3,2.9-5.2c0.7-2.3,1-4.6,1-7
			v-43.9H395V175c0,4.3-0.7,8.5-2.2,12.5c-1.4,3.7-3.6,7-6.3,9.8c-2.8,2.8-6.3,5-10,6.4c-8.6,3.1-18,3.1-26.6,0
			c-3.7-1.4-7.2-3.6-10-6.4c-2.8-2.8-4.9-6.1-6.3-9.8c-1.5-4-2.2-8.2-2.2-12.5v-43.9h17.2V175c0,2.4,0.3,4.7,1,7
			c0.6,1.9,1.6,3.7,2.9,5.2c1.3,1.4,2.8,2.6,4.6,3.3C358.9,191.3,361,191.6,363.1,191.6z"/>
		<path class="st1" d="M419.4,158.1c1-0.9,2.1-1.8,3.2-2.6s2.3-1.5,3.5-2.1c1.3-0.6,2.6-1,4-1.3c1.5-0.3,3.1-0.5,4.7-0.5
			c2.6-0.1,5.2,0.5,7.7,1.5c2.2,1,4.1,2.4,5.6,4.2c1.6,1.9,2.7,4,3.5,6.4c0.8,2.6,1.2,5.3,1.2,8v33.6H437v-33.5
			c0.1-2.1-0.5-4.3-1.8-6c-1.3-1.5-3.3-2.3-5.2-2.2c-1.7,0-3.3,0.4-4.9,1.1c-1.6,0.8-3.1,1.8-4.4,3v37.6h-15.8v-52.9h9.8
			c1.8-0.1,3.4,1,3.9,2.6L419.4,158.1z"/>
		<path class="st1" d="M480.6,138c0,1.2-0.3,2.4-0.8,3.5c-0.5,1.1-1.2,2.1-2.1,2.9s-1.9,1.5-3.1,2s-2.5,0.7-3.7,0.7
			s-2.5-0.2-3.6-0.7s-2.1-1.2-3-2c-0.8-0.8-1.5-1.8-2-2.9c-0.5-1.1-0.7-2.3-0.7-3.5s0.2-2.5,0.7-3.6c0.5-1.1,1.1-2.1,2-3
			c0.9-0.9,1.9-1.5,3-2s2.4-0.7,3.6-0.7c1.3,0,2.6,0.2,3.7,0.7s2.2,1.1,3.1,2c0.9,0.9,1.6,1.9,2.1,3
			C480.3,135.5,480.6,136.7,480.6,138z M479,152.4v52.8h-15.8v-52.8H479z"/>
		<path class="st1" d="M539.7,152.4l-20.4,52.8h-14.4l-20.4-52.8h13.1c1,0,2,0.2,2.8,0.8c0.7,0.5,1.3,1.2,1.5,2l7.3,23.7
			c0.7,1.9,1.2,3.8,1.7,5.6s0.9,3.7,1.3,5.5c0.8-3.8,1.8-7.5,3.1-11.1l7.6-23.7c0.3-0.8,0.8-1.5,1.5-2c0.8-0.5,1.7-0.8,2.6-0.8
			H539.7z"/>
		<path class="st1" d="M556.1,181.6c0.5,4.4,1.8,7.6,4,9.6c2.3,2,5.3,3.1,8.4,3c1.6,0,3.2-0.2,4.7-0.7c1.2-0.4,2.4-0.9,3.5-1.5
			l2.8-1.5c0.8-0.4,1.8-0.7,2.7-0.7c1.1-0.1,2.2,0.5,2.8,1.4l4.6,5.6c-1.5,1.8-3.3,3.3-5.3,4.6c-1.8,1.1-3.8,2.1-5.8,2.8
			s-4,1.1-6,1.4c-1.9,0.2-3.8,0.4-5.7,0.4c-3.6,0-7.1-0.6-10.4-1.8c-3.2-1.2-6.1-3-8.5-5.4c-2.5-2.5-4.5-5.5-5.8-8.9
			c-1.5-3.9-2.2-8.1-2.1-12.3c0-3.4,0.6-6.8,1.8-10c2.3-6.3,7.2-11.3,13.4-13.9c6.5-2.6,13.8-2.8,20.5-0.5c2.8,1,5.4,2.6,7.5,4.7
			c2.1,2.2,3.8,4.8,4.9,7.6c1.2,3.3,1.8,6.7,1.8,10.2c0,1,0,1.9-0.2,2.9c-0.1,0.6-0.3,1.2-0.6,1.8c-0.2,0.4-0.6,0.7-1.1,0.9
			c-0.6,0.2-1.2,0.3-1.8,0.2L556.1,181.6z M575.9,172.5c0-1.2-0.2-2.5-0.5-3.7s-0.8-2.2-1.6-3.2s-1.8-1.7-2.9-2.3
			c-1.4-0.6-2.8-0.9-4.3-0.9c-2.6-0.1-5.1,0.8-7,2.6c-1.9,2.1-3,4.6-3.4,7.4L575.9,172.5z"/>
		<path class="st1" d="M612.7,160.6c1.4-2.6,3.3-4.9,5.6-6.7c2.1-1.6,4.7-2.5,7.3-2.4c2.1-0.1,4.1,0.5,5.8,1.7l-1,11.6
			c-0.1,0.6-0.4,1.1-0.8,1.5c-0.5,0.3-1,0.4-1.6,0.4c-0.3,0-0.6,0-1.1-0.1l-1.4-0.1l-1.4-0.1c-0.4,0-0.9-0.1-1.3-0.1
			c-2-0.1-4,0.5-5.5,1.8c-1.5,1.4-2.7,3.2-3.5,5.1v32.1H598v-52.9h9.4c0.7,0,1.3,0,2,0.2c0.5,0.1,0.9,0.3,1.3,0.6
			c0.4,0.3,0.6,0.7,0.8,1.1c0.2,0.6,0.4,1.1,0.5,1.7L612.7,160.6z"/>
		<path class="st1" d="M670.3,164c-0.3,0.6-0.8,1-1.3,1.4c-0.5,0.3-1.1,0.4-1.8,0.4c-0.8,0-1.5-0.2-2.2-0.5l-2.4-1
			c-1-0.4-1.9-0.7-2.9-1c-1.2-0.3-2.5-0.5-3.7-0.5c-1.6-0.1-3.2,0.3-4.6,1.1c-1,0.7-1.6,1.9-1.6,3.2c0,0.9,0.3,1.8,1,2.4
			c0.8,0.7,1.8,1.3,2.8,1.7c1.3,0.5,2.6,1,3.9,1.4c1.5,0.4,3,0.9,4.5,1.5c1.5,0.5,3,1.2,4.5,1.9c1.4,0.7,2.7,1.6,3.9,2.7
			c1.2,1.1,2.1,2.4,2.8,3.9c0.7,1.7,1.1,3.6,1,5.5c0,2.5-0.5,4.9-1.4,7.2c-1,2.2-2.4,4.2-4.2,5.7c-2.1,1.7-4.4,3-7,3.7
			c-3.1,0.9-6.3,1.4-9.5,1.3c-1.8,0-3.6-0.2-5.4-0.5c-1.8-0.3-3.5-0.8-5.2-1.4c-1.6-0.5-3.2-1.2-4.7-2.1c-1.3-0.7-2.5-1.6-3.7-2.6
			l3.7-5.8c0.4-0.7,0.9-1.2,1.5-1.6c0.7-0.4,1.6-0.6,2.4-0.6c0.9,0,1.7,0.2,2.5,0.6l2.4,1.3c1,0.5,2,1,3,1.3
			c1.4,0.4,2.8,0.7,4.3,0.6c1,0,2.1-0.1,3.1-0.4c0.7-0.2,1.4-0.5,2-1c0.9-0.8,1.5-1.9,1.5-3.2c0-1-0.4-1.9-1.1-2.6
			c-0.8-0.7-1.8-1.3-2.8-1.8c-1.3-0.5-2.6-1-3.9-1.4c-1.5-0.4-3-0.9-4.5-1.4c-1.5-0.6-3-1.2-4.5-2s-2.8-1.7-3.9-2.9
			c-1.2-1.2-2.2-2.7-2.8-4.3c-0.8-2-1.1-4.1-1.1-6.2c0-2.2,0.4-4.4,1.3-6.4c0.9-2,2.2-3.9,3.9-5.3c1.9-1.6,4.1-2.9,6.5-3.6
			c3-1,6.1-1.4,9.2-1.4c1.9,0,3.7,0.2,5.5,0.5c1.7,0.3,3.4,0.8,5,1.4c1.5,0.6,2.9,1.3,4.3,2.2c1.2,0.8,2.4,1.7,3.4,2.7L670.3,164z"
			/>
		<path class="st1" d="M699.9,138c0,1.2-0.3,2.4-0.8,3.5c-0.5,1.1-1.2,2.1-2.1,2.9c-0.9,0.8-1.9,1.5-3.1,2c-1.2,0.5-2.5,0.7-3.7,0.7
			s-2.5-0.2-3.6-0.7s-2.1-1.2-3-2c-0.8-0.8-1.5-1.8-2-2.9c-0.5-1.1-0.7-2.3-0.7-3.5s0.2-2.5,0.7-3.6c0.5-1.1,1.1-2.1,2-3
			c0.9-0.9,1.9-1.5,3-2s2.4-0.7,3.6-0.7c1.3,0,2.6,0.2,3.7,0.7c1.1,0.5,2.2,1.1,3.1,2c0.9,0.9,1.6,1.9,2.1,3
			C699.6,135.5,699.9,136.7,699.9,138z M698.2,152.4v52.8h-15.8v-52.8H698.2z"/>
		<path class="st1" d="M728.2,206c-2.3,0-4.5-0.3-6.6-1.1c-3.7-1.3-6.6-4.3-7.8-8c-0.7-2-1-4.2-1-6.4v-27.2h-4.5
			c-1.6,0.1-2.9-1.1-3-2.7c0-0.1,0-0.3,0-0.4V154l8.4-1.6l3.1-12.9c0.4-1.6,1.6-2.4,3.5-2.4h8.2v15.4h13.1v10.8h-13.1v26.2
			c0,1.1,0.3,2.1,0.9,3c0.6,0.8,1.6,1.3,2.6,1.2c0.5,0,1,0,1.5-0.2c0.3-0.1,0.7-0.2,1-0.4l0.8-0.4c0.3-0.1,0.6-0.2,0.9-0.2
			c0.4,0,0.8,0.1,1.2,0.3c0.3,0.3,0.6,0.6,0.9,1l4.8,7.5c-2.1,1.5-4.4,2.7-6.9,3.4C733.5,205.6,730.8,206,728.2,206z"/>
		<path class="st1" d="M798.5,152.4l-28.2,66.5c-0.7,2.1-2.8,3.4-5,3.1h-11.8l10.2-21.4l-21.1-48.2h13.9c1-0.1,2,0.2,2.8,0.8
			c0.6,0.5,1.1,1.2,1.5,1.9l8.7,22.8c0.8,2.1,1.5,4.2,2,6.4l1.1-3.3c0.4-1.1,0.8-2.2,1.2-3.2l7.8-22.6c0.3-0.8,0.9-1.5,1.6-2
			c0.7-0.5,1.6-0.8,2.5-0.8L798.5,152.4z"/>
	</g>
</g>
<polygon class="st1" points="277.8,72.9 174.9,18.2 174.9,49.8 242.7,87 174.9,121.6 174.9,152.8 218.3,130.7 218.3,171 155.9,202 
	155.8,201.9 155.7,202 93.3,171 93.3,130.7 136.7,152.8 136.7,121.5 68.9,87 136.7,49.8 136.7,18.2 31.8,74 31.8,99.3 65.4,116.5 
	65.4,188.2 155.8,233.1 246.2,188.2 246.2,116.5 277.8,100.3 "/>
</svg>
